# xmcd CD database file
#
# Track frame offsets:
#	150
#	17151
#	35461
#	64205
#	98105
#	111464
#	142014
#	161327
#	187736
#	202151
#	239862
#	257028
#
# Disc length: 3724 seconds
#
# Revision: 1
# Processed by: cddbd v1.5.2PL0 Copyright (c) Steve Scherf et al.
# Submitted via: CDex 1.70beta2
#
DISCID=b00e8a0c
DTITLE=Jimi Hendrix - Valleys of Neptune - SICP-2662
DYEAR=2010
DGENRE=Classical
TTITLE0=Stone Free
TTITLE1=Valleys of Neptune
TTITLE2=Bleeding Heart
TTITLE3=Hear My Train a Comin'
TTITLE4=Mr. Bad Luck
TTITLE5=Sunshine of Your Love
TTITLE6=Lover Man
TTITLE7=Ships Passing Through the Night
TTITLE8=Fire
TTITLE9=Red House
TTITLE10=Lullaby for the Summer
TTITLE11=Crying Blue Rain
EXTD=YEAR: 2010
EXTT0=
EXTT1=
EXTT2=
EXTT3=
EXTT4=
EXTT5=
EXTT6=
EXTT7=
EXTT8=
EXTT9=
EXTT10=
EXTT11=
PLAYORDER=
